PathFileType	4	(X/Y/Z)	/Users/visionmauri/Downloads/Videos/OAW03-top_Sports2D/OAW03-top_Sports2D_m_person00.trc
DataRate	CameraRate	NumFrames	NumMarkers	Units	OrigDataRate	OrigDataStartFrame	OrigNumFrames
30.0	30.0	11	22	m	30.0	1341	2146
Frame#	Time	Hip			RHip			RKnee			RAnkle			RBigToe			RSmallToe			RHeel			LHip			LKnee			LAnkle			LBigToe			LSmallToe			LHeel			Neck			Head			Nose			RShoulder			RElbow			RWrist			LShoulder			LElbow			LWrist			
		X1	Y1	Z1	X2	Y2	Z2	X3	Y3	Z3	X4	Y4	Z4	X5	Y5	Z5	X6	Y6	Z6	X7	Y7	Z7	X8	Y8	Z8	X9	Y9	Z9	X10	Y10	Z10	X11	Y11	Z11	X12	Y12	Z12	X13	Y13	Z13	X14	Y14	Z14	X15	Y15	Z15	X16	Y16	Z16	X17	Y17	Z17	X18	Y18	Z18	X19	Y19	Z19	X20	Y20	Z20	X21	Y21	Z21	X22	Y22	Z22
1341	44.72083916083916	1.8953665247684008	0.5508109022945018	0.0301	1.9364660166121548	0.5871215902940843	0.0301	2.072986911405895	0.4813493226379726	0.129	2.1636446942212317	0.40014625100568857	0.023	2.2420168437508177	0.30045245084071515	0.2179	2.2631902141525684	0.3371291780191463	0.1804	2.198056324995761	0.37455148684760226	-0.0119	1.8724274155918528	0.5085487288354344	0.0301	2.020120247470712	0.4057179812615233	0.129	2.1490410827932465	0.32802984856002526	0.023	2.2059971568755756	0.29413547656066646	0.2179	2.1861416064353794	0.26756175574609803	0.1804	2.1877546749575734	0.3067666306457787	-0.0119	1.6625226588952582	0.7475398389722757	0.0008	1.596844982963802	0.7974708242777706	0.0655	1.6581710220455055	0.7712907820117814	0.1076	1.7543566175059686	0.7926961860107584	-0.01275	1.892127831243593	0.720471653452038	0.0702	1.9986809976203541	0.6644275734788506	0.1076	1.6379449942897135	0.6571135956928018	-0.01275	1.7219332950150381	0.5277383187216652	0.0702	1.7820270988981768	0.4081086029311515	0.1076
1342	44.75418803418803	1.8902870465025976	0.5518204208658225	0.0301	1.9316780395114208	0.5872492081953825	0.0301	2.0654899061171834	0.48368600694944547	0.129	2.1632698369349908	0.4045588325398405	0.023	2.235281536063068	0.3118738880202777	0.2179	2.257954487047729	0.349314843304685	0.1804	2.1961712684013572	0.38026271916421184	-0.0119	1.8694147344548402	0.5091662638253703	0.0301	2.0175999157082667	0.4055895993074751	0.129	2.148696927963804	0.3267362533936434	0.023	2.205189909128717	0.29449819122466353	0.2179	2.185794765320247	0.26752874614632866	0.1804	2.1883783874432727	0.3048763396784814	-0.0119	1.6554154299285284	0.7534005397298894	0.0008	1.5894606917703573	0.8051704032927265	0.0655	1.6443006732780734	0.7730957543004936	0.1076	1.7502184630523945	0.7952788359470844	-0.01275	1.8888060762000145	0.7195289321995626	0.0702	1.9946058042200872	0.6579552121975734	0.1076	1.6343688652630546	0.6589983647870681	-0.01275	1.7224134642158127	0.5320057370270398	0.0702	1.7844749702276617	0.41702406956477694	0.1076
1343	44.787536907536904	1.8863782141149936	0.5517037235487287	0.0301	1.9251652292871884	0.5880505571663255	0.0301	2.0600911611031862	0.4842167001543745	0.129	2.168293372920337	0.40098633391231425	0.023	2.228173384268098	0.32023632479204	0.2179	2.252169939331875	0.35600068348727015	0.1804	2.1978791296728133	0.37669499826043135	-0.0119	1.864949394555506	0.5098939331281906	0.0301	2.0149081728758587	0.40542272871964397	0.129	2.148831571086546	0.324891149184141	0.023	2.202071972684297	0.2966383014317269	0.2179	2.1833708239498084	0.26904593296184337	0.1804	2.1873251392141597	0.303585680191021	-0.0119	1.6523582032268802	0.7554612774727755	0.0008	1.5812101642687766	0.813559677022286	0.0655	1.6359615256600946	0.7715359985050692	0.1076	1.7468314540952505	0.7967915051040979	-0.01275	1.8860031557603014	0.7186567814353584	0.0702	1.9898757384162027	0.6519838770768872	0.1076	1.6310665431559468	0.6594656433934807	-0.01275	1.7225422669080195	0.5350868499774537	0.0702	1.7879123850900327	0.42441605298406404	0.1076
1344	44.82088578088578	1.883842074954575	0.5508090471519781	0.0301	1.9185500057619762	0.589505144216869	0.0301	2.0561495598541693	0.48385695155669395	0.129	2.172187444933631	0.3942051650859987	0.023	2.218041910655591	0.328373726461291	0.2179	2.244080102148473	0.3608487157976308	0.1804	2.2002920959397994	0.368295731349494	-0.0119	1.8591081522521509	0.5109150359156602	0.0301	2.012654119544068	0.40589194704956033	0.129	2.149405163853584	0.3236937979158991	0.023	2.1977354731535894	0.2995298828068298	0.2179	2.1799910214870746	0.2711325948771774	0.1804	2.1859204173615443	0.30366916131733973	-0.0119	1.6527466156935091	0.7536303734185698	0.0008	1.5730603274244805	0.8202744133697023	0.0655	1.6322052935386988	0.7697732939837579	0.1076	1.743754994763616	0.796902725735285	-0.01275	1.882461089782101	0.7173528910332725	0.0702	1.9851750254205651	0.646653847101831	0.1076	1.6281839333031256	0.6592387409245795	-0.01275	1.722212515675611	0.5355501418679894	0.0702	1.7924933413375166	0.4303912462913896	0.1076
1345	44.85423465423465	1.8814083914977002	0.5506758841436749	0.0301	1.9138905646025817	0.5904485067888329	0.0301	2.053378166099225	0.48419498061595784	0.129	2.1711869526402396	0.3891842736702157	0.023	2.2066538083073635	0.3367794181699002	0.2179	2.234255765758349	0.3666093840502349	0.1804	2.1983815460780964	0.36141175556401633	-0.0119	1.8533886175424361	0.5118362802193853	0.0301	2.0107530317359283	0.40699478661841665	0.129	2.1494593088345315	0.3231919992978311	0.023	2.1938099959059945	0.3018218186818979	0.2179	2.1776159020296237	0.27249802943828144	0.1804	2.1846828417528297	0.3043197530961736	-0.0119	1.6538076234347996	0.7510550602536653	0.0008	1.5668377578906831	0.8253233828349841	0.0655	1.6281573333555959	0.7711855608117542	0.1076	1.7410229392725909	0.7959127403457532	-0.01275	1.878388263648365	0.7153026317977387	0.0702	1.9810968183037247	0.6423727029788359	0.1076	1.6259051307986805	0.6593570338957206	-0.01275	1.7208922336724288	0.5346536571371744	0.0702	1.7976387651666865	0.43694382785576413	0.1076
1346	44.88758352758352	1.8786915301005838	0.5520475898406435	0.0301	1.91178585255797	0.5902888817573098	0.0301	2.051534807006476	0.4859660490686408	0.129	2.1657800915626524	0.38773129441294674	0.023	2.1991626226872354	0.34204445959648627	0.2179	2.225753841549688	0.3701749454298882	0.1804	2.1909317540563813	0.35941500164515217	-0.0119	1.849563206401942	0.5123199491904427	0.0301	2.0091687718571123	0.40818364002037155	0.129	2.1487652742101564	0.3231567209866214	0.023	2.1913399559352236	0.3027867230696566	0.2179	2.1768816443626813	0.27255546501398376	0.1804	2.183453036485225	0.3044442021332721	-0.0119	1.6540986525878432	0.7498265789651474	0.0008	1.5658555636051492	0.8287262372280908	0.0655	1.6270600234922572	0.774924102994752	0.1076	1.7395792773397227	0.79435488213815	-0.01275	1.8754307867429951	0.7129003815381	0.0702	1.9786920894418893	0.6394620236519994	0.1076	1.624593930019237	0.6602362927409817	-0.01275	1.7187751883627298	0.5343958274100584	0.0702	1.8026311600248293	0.4448369590887426	0.1076
1347	44.9209324009324	1.8770395044137773	0.5538277325359511	0.0301	1.9122722717500413	0.5891325753044193	0.0301	2.0500052522687437	0.48858655067106	0.129	2.1582623775839216	0.38915594565640677	0.023	2.196445594436701	0.34275243225102653	0.2179	2.219968952214667	0.36968327185902816	0.1804	2.1821446486737455	0.36111124919235976	-0.0119	1.8490098843040976	0.512223577880771	0.0301	2.0081738252111907	0.40925484230753295	0.129	2.1478969580343303	0.3240858626046464	0.023	2.1911152414136374	0.3019624014900772	0.2179	2.1773785370986336	0.2717519832031397	0.1804	2.182380844457345	0.30456320498843487	-0.0119	1.6537162746385896	0.7505493483944594	0.0008	1.5710527600381443	0.8296589295181359	0.0655	1.6335210509841394	0.7788216665510996	0.1076	1.740299528757704	0.7929458147796612	-0.01275	1.8751967882795002	0.7107658161897368	0.0702	1.9790124758737133	0.6375848089818379	0.1076	1.6247285696766067	0.6615982332817972	-0.01275	1.7175124926119139	0.535217939776677	0.0702	1.8065081335819129	0.45272573990723014	0.1076
1348	44.95428127428127	1.8771650642558795	0.5547458309492573	0.0301	1.9147577817297483	0.5874575826847145	0.0301	2.04880936669561	0.4905775497360977	0.129	2.1513680672131854	0.3916494064950023	0.023	2.194001474285307	0.3421438397223922	0.2179	2.2149090544014105	0.3691622923465543	0.1804	2.176096260970263	0.3640992887045166	-0.0119	1.8510408716941809	0.5116250831090781	0.0301	2.007814556562799	0.41002295895258456	0.129	2.1470642244563236	0.32587065513073815	0.023	2.193115374980676	0.2993327695238	0.2179	2.1786148559064933	0.27100682150535693	0.1804	2.1817343119343935	0.3053784323131895	-0.0119	1.6532518874865374	0.7531874157510496	0.0008	1.5775860351835798	0.8284972765390913	0.0655	1.6414225317541336	0.781791921864126	0.1076	1.742355770648565	0.7920633740400774	-0.01275	1.8774898322845344	0.7090421549969921	0.0702	1.9810835824944253	0.6365091445886019	0.1076	1.626198963304926	0.6629934464382665	-0.01275	1.7181661028543427	0.5366994050345969	0.0702	1.8078923847983652	0.4592568071616428	0.1076
1349	44.98763014763015	1.8780230052433435	0.5548615879669121	0.0301	1.9169908502816706	0.5863984660165423	0.0301	2.047611413122747	0.49080556981841417	0.129	2.1469461284562783	0.39384867766262566	0.023	2.1878834225147066	0.3449375792992445	0.2179	2.208125929656944	0.3731795791646632	0.1804	2.1729030182099645	0.3671418777239273	-0.0119	1.8522437319716438	0.5116116087027134	0.0301	2.007712021250483	0.410281447130581	0.129	2.145975380773592	0.32740759994997154	0.023	2.195673647192159	0.29632682777870223	0.2179	2.179789866212322	0.2710977407327305	0.1804	2.1810072714514575	0.3063877089768021	-0.0119	1.6540439629671515	0.7561667152196595	0.0008	1.5815460227497258	0.8270585576889342	0.0655	1.644222957212444	0.7833360943868226	0.1076	1.7444456140864923	0.7914918777227086	-0.01275	1.8805697095971605	0.7076670295327369	0.0702	1.982815857250053	0.6365273479748109	0.1076	1.628410574018659	0.6644048025066349	-0.01275	1.719381954922396	0.5389811382851074	0.0702	1.8060812306090053	0.4643659653410263	0.1076
1350	45.02097902097902	1.8782414804496539	0.5554181068927625	0.0301	1.9166905622415102	0.5870384065022063	0.0301	2.0449984522909235	0.4896806219655246	0.129	2.1446685667384426	0.3958356390967891	0.023	2.1790905282196786	0.3514469186373556	0.2179	2.2002583601007606	0.38021560648260155	0.1804	2.1701137816455973	0.37000024953519045	-0.0119	1.8499126202327707	0.5136127705311799	0.0301	2.0070859074303464	0.4106398233321829	0.129	2.1436590953899617	0.3285008059183685	0.023	2.1969508809476324	0.29514012908085935	0.2179	2.1797153853686924	0.2721484577455058	0.1804	2.1783671300519067	0.3073682659548753	-0.0119	1.658517054683938	0.7568222567872291	0.0008	1.5872470108493335	0.826535990757995	0.0655	1.6482818281075122	0.7832939852281677	0.1076	1.7471414924975879	0.7911977446767323	-0.01275	1.883423909003751	0.7067930750639834	0.0702	1.984068652355586	0.6376954340678147	0.1076	1.6310209680807854	0.6660711470935538	-0.01275	1.7194383483225497	0.5421060977935593	0.0702	1.8028412353633636	0.4685479745221605	0.1076
1351	45.05432789432789	1.8772186180268557	0.5572308125019104	0.0301	1.9137495535184552	0.5892015310332293	0.0301	2.041002736300432	0.48859925468972065	0.129	2.1431667400566554	0.39786180913481184	0.023	2.1721723250663274	0.3566320374451985	0.2179	2.1952947804824507	0.38443569639417596	0.1804	2.1670022831997167	0.37251010491567427	-0.0119	1.8456122398614088	0.5171331382603919	0.0301	2.0050972129027134	0.4121253034967943	0.129	2.1388264632856173	0.3301521576092404	0.023	2.1965676313387874	0.29684396243015887	0.2179	2.177558204682368	0.2736207345163106	0.1804	2.1722726984314344	0.30894651385015104	-0.0119	1.667370735446298	0.7546744187269965	0.0008	1.6000143313766702	0.8270255955881187	0.0655	1.6618361528305774	0.7826886651235904	0.1076	1.7515502064237205	0.791553573153422	-0.01275	1.886159812664659	0.706434063078298	0.0702	1.9864856690875663	0.6395257628077945	0.1076	1.6333721442051534	0.668361726103216	-0.01275	1.7186495639107888	0.5452041753983857	0.0702	1.8009548863975025	0.47209800684404035	0.1076
